<mxfile host="app.diagrams.net" modified="2023-12-04T10:25:02.302Z" agent="Mozilla/5.0 (Windows NT 10.0; Win64; x64) AppleWebKit/537.36 (KHTML, like Gecko) Chrome/119.0.0.0 Safari/537.36 Edg/119.0.0.0" etag="9SfYKZZi0EztmaA90HP6" version="22.1.5" type="github">
  <diagram id="R2lEEEUBdFMjLlhIrx00" name="Page-1">
    <mxGraphModel dx="2781" dy="888" grid="1" gridSize="10" guides="1" tooltips="1" connect="1" arrows="1" fold="1" page="1" pageScale="1" pageWidth="850" pageHeight="1100" math="0" shadow="0" extFonts="Permanent Marker^https://fonts.googleapis.com/css?family=Permanent+Marker">
      <root>
        <mxCell id="0" />
        <mxCell id="1" parent="0" />
        <mxCell id="ToTtGPNyFrBChNgWNfNL-56" value="Zoo" style="rounded=0;whiteSpace=wrap;html=1;" vertex="1" parent="1">
          <mxGeometry x="330" y="410" width="120" height="60" as="geometry" />
        </mxCell>
        <mxCell id="ToTtGPNyFrBChNgWNfNL-62" style="edgeStyle=none;rounded=0;orthogonalLoop=1;jettySize=auto;html=1;exitX=1;exitY=1;exitDx=0;exitDy=0;entryX=0;entryY=0.25;entryDx=0;entryDy=0;" edge="1" parent="1" source="ToTtGPNyFrBChNgWNfNL-58" target="ToTtGPNyFrBChNgWNfNL-56">
          <mxGeometry relative="1" as="geometry" />
        </mxCell>
        <mxCell id="ToTtGPNyFrBChNgWNfNL-58" value="&lt;u&gt;Zoo_ID&lt;/u&gt;" style="ellipse;whiteSpace=wrap;html=1;" vertex="1" parent="1">
          <mxGeometry x="190" y="360" width="120" height="60" as="geometry" />
        </mxCell>
        <mxCell id="ToTtGPNyFrBChNgWNfNL-63" style="edgeStyle=none;rounded=0;orthogonalLoop=1;jettySize=auto;html=1;exitX=0;exitY=1;exitDx=0;exitDy=0;entryX=1;entryY=0.25;entryDx=0;entryDy=0;" edge="1" parent="1" source="ToTtGPNyFrBChNgWNfNL-59" target="ToTtGPNyFrBChNgWNfNL-56">
          <mxGeometry relative="1" as="geometry" />
        </mxCell>
        <mxCell id="ToTtGPNyFrBChNgWNfNL-59" value="Name" style="ellipse;whiteSpace=wrap;html=1;" vertex="1" parent="1">
          <mxGeometry x="470" y="360" width="120" height="60" as="geometry" />
        </mxCell>
        <mxCell id="ToTtGPNyFrBChNgWNfNL-61" style="edgeStyle=none;rounded=0;orthogonalLoop=1;jettySize=auto;html=1;exitX=0.5;exitY=1;exitDx=0;exitDy=0;entryX=0.5;entryY=0;entryDx=0;entryDy=0;" edge="1" parent="1" source="ToTtGPNyFrBChNgWNfNL-60" target="ToTtGPNyFrBChNgWNfNL-56">
          <mxGeometry relative="1" as="geometry" />
        </mxCell>
        <mxCell id="ToTtGPNyFrBChNgWNfNL-60" value="Ort" style="ellipse;whiteSpace=wrap;html=1;" vertex="1" parent="1">
          <mxGeometry x="330" y="300" width="120" height="60" as="geometry" />
        </mxCell>
        <mxCell id="ToTtGPNyFrBChNgWNfNL-68" value="haelt" style="rhombus;whiteSpace=wrap;html=1;rounded=0;" vertex="1" parent="1">
          <mxGeometry x="350" y="560" width="80" height="80" as="geometry" />
        </mxCell>
        <mxCell id="ToTtGPNyFrBChNgWNfNL-71" value="" style="endArrow=none;html=1;rounded=0;entryX=0.5;entryY=1;entryDx=0;entryDy=0;exitX=0.5;exitY=0;exitDx=0;exitDy=0;" edge="1" parent="1" source="ToTtGPNyFrBChNgWNfNL-68" target="ToTtGPNyFrBChNgWNfNL-56">
          <mxGeometry width="50" height="50" relative="1" as="geometry">
            <mxPoint x="460" y="550" as="sourcePoint" />
            <mxPoint x="390" y="520" as="targetPoint" />
          </mxGeometry>
        </mxCell>
        <mxCell id="ToTtGPNyFrBChNgWNfNL-72" value="Tierart" style="whiteSpace=wrap;html=1;rounded=0;" vertex="1" parent="1">
          <mxGeometry x="330" y="730" width="120" height="60" as="geometry" />
        </mxCell>
        <mxCell id="ToTtGPNyFrBChNgWNfNL-78" style="edgeStyle=none;rounded=0;orthogonalLoop=1;jettySize=auto;html=1;exitX=0;exitY=1;exitDx=0;exitDy=0;entryX=1;entryY=0.25;entryDx=0;entryDy=0;" edge="1" parent="1" source="ToTtGPNyFrBChNgWNfNL-76" target="ToTtGPNyFrBChNgWNfNL-72">
          <mxGeometry relative="1" as="geometry" />
        </mxCell>
        <mxCell id="ToTtGPNyFrBChNgWNfNL-76" value="Artname" style="ellipse;whiteSpace=wrap;html=1;" vertex="1" parent="1">
          <mxGeometry x="470" y="660" width="120" height="60" as="geometry" />
        </mxCell>
        <mxCell id="ToTtGPNyFrBChNgWNfNL-77" value="" style="endArrow=none;html=1;rounded=0;entryX=0.5;entryY=1;entryDx=0;entryDy=0;exitX=0.5;exitY=0;exitDx=0;exitDy=0;" edge="1" parent="1" source="ToTtGPNyFrBChNgWNfNL-72" target="ToTtGPNyFrBChNgWNfNL-68">
          <mxGeometry width="50" height="50" relative="1" as="geometry">
            <mxPoint x="270" y="760" as="sourcePoint" />
            <mxPoint x="270" y="670" as="targetPoint" />
          </mxGeometry>
        </mxCell>
        <mxCell id="ToTtGPNyFrBChNgWNfNL-79" value="ist in" style="rhombus;whiteSpace=wrap;html=1;rounded=0;" vertex="1" parent="1">
          <mxGeometry x="550" y="720" width="80" height="80" as="geometry" />
        </mxCell>
        <mxCell id="ToTtGPNyFrBChNgWNfNL-81" value="" style="endArrow=none;html=1;rounded=0;exitX=1;exitY=0.5;exitDx=0;exitDy=0;entryX=0;entryY=0.5;entryDx=0;entryDy=0;" edge="1" parent="1" source="ToTtGPNyFrBChNgWNfNL-72" target="ToTtGPNyFrBChNgWNfNL-79">
          <mxGeometry width="50" height="50" relative="1" as="geometry">
            <mxPoint x="500" y="790" as="sourcePoint" />
            <mxPoint x="550" y="740" as="targetPoint" />
          </mxGeometry>
        </mxCell>
        <mxCell id="ToTtGPNyFrBChNgWNfNL-82" value="Raum" style="whiteSpace=wrap;html=1;rounded=0;" vertex="1" parent="1">
          <mxGeometry x="690" y="730" width="120" height="60" as="geometry" />
        </mxCell>
        <mxCell id="ToTtGPNyFrBChNgWNfNL-85" style="edgeStyle=none;rounded=0;orthogonalLoop=1;jettySize=auto;html=1;exitX=0.5;exitY=1;exitDx=0;exitDy=0;entryX=0.5;entryY=0;entryDx=0;entryDy=0;" edge="1" parent="1" source="ToTtGPNyFrBChNgWNfNL-84" target="ToTtGPNyFrBChNgWNfNL-82">
          <mxGeometry relative="1" as="geometry" />
        </mxCell>
        <mxCell id="ToTtGPNyFrBChNgWNfNL-84" value="&lt;u&gt;Raum_ID&lt;/u&gt;" style="ellipse;whiteSpace=wrap;html=1;" vertex="1" parent="1">
          <mxGeometry x="690" y="640" width="120" height="60" as="geometry" />
        </mxCell>
        <mxCell id="ToTtGPNyFrBChNgWNfNL-87" style="edgeStyle=none;rounded=0;orthogonalLoop=1;jettySize=auto;html=1;exitX=0.5;exitY=0;exitDx=0;exitDy=0;entryX=0.5;entryY=1;entryDx=0;entryDy=0;" edge="1" parent="1" source="ToTtGPNyFrBChNgWNfNL-86" target="ToTtGPNyFrBChNgWNfNL-82">
          <mxGeometry relative="1" as="geometry" />
        </mxCell>
        <mxCell id="ToTtGPNyFrBChNgWNfNL-86" value="Flaeche" style="ellipse;whiteSpace=wrap;html=1;" vertex="1" parent="1">
          <mxGeometry x="690" y="820" width="120" height="60" as="geometry" />
        </mxCell>
        <mxCell id="ToTtGPNyFrBChNgWNfNL-88" value="pflegt" style="rhombus;whiteSpace=wrap;html=1;rounded=0;" vertex="1" parent="1">
          <mxGeometry x="150" y="720" width="80" height="80" as="geometry" />
        </mxCell>
        <mxCell id="ToTtGPNyFrBChNgWNfNL-90" value="Pfleger" style="whiteSpace=wrap;html=1;rounded=0;" vertex="1" parent="1">
          <mxGeometry x="-40" y="730" width="120" height="60" as="geometry" />
        </mxCell>
        <mxCell id="ToTtGPNyFrBChNgWNfNL-92" value="" style="endArrow=none;html=1;rounded=0;entryX=0;entryY=0.5;entryDx=0;entryDy=0;exitX=1;exitY=0.5;exitDx=0;exitDy=0;" edge="1" parent="1" source="ToTtGPNyFrBChNgWNfNL-88" target="ToTtGPNyFrBChNgWNfNL-72">
          <mxGeometry width="50" height="50" relative="1" as="geometry">
            <mxPoint x="280" y="770" as="sourcePoint" />
            <mxPoint x="280" y="680" as="targetPoint" />
          </mxGeometry>
        </mxCell>
        <mxCell id="ToTtGPNyFrBChNgWNfNL-93" value="" style="endArrow=none;html=1;rounded=0;entryX=0;entryY=0.5;entryDx=0;entryDy=0;exitX=1;exitY=0.5;exitDx=0;exitDy=0;" edge="1" parent="1" source="ToTtGPNyFrBChNgWNfNL-90" target="ToTtGPNyFrBChNgWNfNL-88">
          <mxGeometry width="50" height="50" relative="1" as="geometry">
            <mxPoint x="240" y="770" as="sourcePoint" />
            <mxPoint x="340" y="770" as="targetPoint" />
          </mxGeometry>
        </mxCell>
        <mxCell id="ToTtGPNyFrBChNgWNfNL-94" value="" style="endArrow=none;html=1;rounded=0;entryX=0;entryY=0.5;entryDx=0;entryDy=0;exitX=1;exitY=0.5;exitDx=0;exitDy=0;" edge="1" parent="1" source="ToTtGPNyFrBChNgWNfNL-79" target="ToTtGPNyFrBChNgWNfNL-82">
          <mxGeometry width="50" height="50" relative="1" as="geometry">
            <mxPoint x="375" y="820" as="sourcePoint" />
            <mxPoint x="475" y="820" as="targetPoint" />
          </mxGeometry>
        </mxCell>
        <mxCell id="ToTtGPNyFrBChNgWNfNL-96" style="edgeStyle=none;rounded=0;orthogonalLoop=1;jettySize=auto;html=1;exitX=0;exitY=1;exitDx=0;exitDy=0;entryX=0.75;entryY=0;entryDx=0;entryDy=0;" edge="1" parent="1" source="ToTtGPNyFrBChNgWNfNL-95" target="ToTtGPNyFrBChNgWNfNL-90">
          <mxGeometry relative="1" as="geometry" />
        </mxCell>
        <mxCell id="ToTtGPNyFrBChNgWNfNL-95" value="&lt;u&gt;Pers_ID&lt;/u&gt;" style="ellipse;whiteSpace=wrap;html=1;" vertex="1" parent="1">
          <mxGeometry x="70" y="640" width="120" height="60" as="geometry" />
        </mxCell>
        <mxCell id="ToTtGPNyFrBChNgWNfNL-98" style="edgeStyle=none;rounded=0;orthogonalLoop=1;jettySize=auto;html=1;exitX=0.5;exitY=1;exitDx=0;exitDy=0;entryX=0.25;entryY=0;entryDx=0;entryDy=0;" edge="1" parent="1" source="ToTtGPNyFrBChNgWNfNL-97" target="ToTtGPNyFrBChNgWNfNL-90">
          <mxGeometry relative="1" as="geometry" />
        </mxCell>
        <mxCell id="ToTtGPNyFrBChNgWNfNL-97" value="Name" style="ellipse;whiteSpace=wrap;html=1;" vertex="1" parent="1">
          <mxGeometry x="-90" y="640" width="120" height="60" as="geometry" />
        </mxCell>
        <mxCell id="ToTtGPNyFrBChNgWNfNL-103" style="edgeStyle=none;rounded=0;orthogonalLoop=1;jettySize=auto;html=1;exitX=1;exitY=0.5;exitDx=0;exitDy=0;entryX=0;entryY=0.25;entryDx=0;entryDy=0;" edge="1" parent="1" source="ToTtGPNyFrBChNgWNfNL-99" target="ToTtGPNyFrBChNgWNfNL-90">
          <mxGeometry relative="1" as="geometry" />
        </mxCell>
        <mxCell id="ToTtGPNyFrBChNgWNfNL-99" value="Geburtsdatum" style="ellipse;whiteSpace=wrap;html=1;" vertex="1" parent="1">
          <mxGeometry x="-200" y="700" width="120" height="60" as="geometry" />
        </mxCell>
        <mxCell id="ToTtGPNyFrBChNgWNfNL-104" style="edgeStyle=none;rounded=0;orthogonalLoop=1;jettySize=auto;html=1;exitX=1;exitY=0;exitDx=0;exitDy=0;entryX=0;entryY=0.75;entryDx=0;entryDy=0;" edge="1" parent="1" source="ToTtGPNyFrBChNgWNfNL-101" target="ToTtGPNyFrBChNgWNfNL-90">
          <mxGeometry relative="1" as="geometry" />
        </mxCell>
        <mxCell id="ToTtGPNyFrBChNgWNfNL-101" value="Gehalt" style="ellipse;whiteSpace=wrap;html=1;" vertex="1" parent="1">
          <mxGeometry x="-200" y="780" width="120" height="60" as="geometry" />
        </mxCell>
        <mxCell id="ToTtGPNyFrBChNgWNfNL-105" value="gehoert zu" style="rhombus;whiteSpace=wrap;html=1;rounded=0;" vertex="1" parent="1">
          <mxGeometry x="350" y="860" width="80" height="80" as="geometry" />
        </mxCell>
        <mxCell id="ToTtGPNyFrBChNgWNfNL-107" value="" style="endArrow=none;html=1;rounded=0;entryX=0.5;entryY=1;entryDx=0;entryDy=0;exitX=0.5;exitY=0;exitDx=0;exitDy=0;" edge="1" parent="1" source="ToTtGPNyFrBChNgWNfNL-105" target="ToTtGPNyFrBChNgWNfNL-72">
          <mxGeometry width="50" height="50" relative="1" as="geometry">
            <mxPoint x="360" y="860" as="sourcePoint" />
            <mxPoint x="410" y="810" as="targetPoint" />
          </mxGeometry>
        </mxCell>
        <mxCell id="ToTtGPNyFrBChNgWNfNL-108" value="tier" style="whiteSpace=wrap;html=1;rounded=0;" vertex="1" parent="1">
          <mxGeometry x="330" y="1010" width="120" height="60" as="geometry" />
        </mxCell>
        <mxCell id="ToTtGPNyFrBChNgWNfNL-153" value="" style="edgeStyle=none;rounded=0;orthogonalLoop=1;jettySize=auto;html=1;" edge="1" parent="1" source="ToTtGPNyFrBChNgWNfNL-109" target="ToTtGPNyFrBChNgWNfNL-108">
          <mxGeometry relative="1" as="geometry" />
        </mxCell>
        <mxCell id="ToTtGPNyFrBChNgWNfNL-109" value="Tieralter" style="ellipse;whiteSpace=wrap;html=1;" vertex="1" parent="1">
          <mxGeometry x="490" y="960" width="120" height="60" as="geometry" />
        </mxCell>
        <mxCell id="ToTtGPNyFrBChNgWNfNL-154" value="" style="edgeStyle=none;rounded=0;orthogonalLoop=1;jettySize=auto;html=1;" edge="1" parent="1" source="ToTtGPNyFrBChNgWNfNL-110" target="ToTtGPNyFrBChNgWNfNL-108">
          <mxGeometry relative="1" as="geometry" />
        </mxCell>
        <mxCell id="ToTtGPNyFrBChNgWNfNL-110" value="Geschlecht" style="ellipse;whiteSpace=wrap;html=1;" vertex="1" parent="1">
          <mxGeometry x="490" y="1060" width="120" height="60" as="geometry" />
        </mxCell>
        <mxCell id="ToTtGPNyFrBChNgWNfNL-150" style="edgeStyle=none;rounded=0;orthogonalLoop=1;jettySize=auto;html=1;exitX=1;exitY=0.5;exitDx=0;exitDy=0;entryX=0;entryY=0.5;entryDx=0;entryDy=0;" edge="1" parent="1" source="ToTtGPNyFrBChNgWNfNL-111" target="ToTtGPNyFrBChNgWNfNL-108">
          <mxGeometry relative="1" as="geometry" />
        </mxCell>
        <mxCell id="ToTtGPNyFrBChNgWNfNL-111" value="&lt;u&gt;Tier_ID&lt;/u&gt;" style="ellipse;whiteSpace=wrap;html=1;" vertex="1" parent="1">
          <mxGeometry x="160" y="1010" width="120" height="60" as="geometry" />
        </mxCell>
        <mxCell id="ToTtGPNyFrBChNgWNfNL-112" value="erhaelt" style="rhombus;whiteSpace=wrap;html=1;rounded=0;" vertex="1" parent="1">
          <mxGeometry x="350" y="1140" width="80" height="80" as="geometry" />
        </mxCell>
        <mxCell id="ToTtGPNyFrBChNgWNfNL-113" value="Mischung" style="whiteSpace=wrap;html=1;rounded=0;" vertex="1" parent="1">
          <mxGeometry x="330" y="1310" width="120" height="60" as="geometry" />
        </mxCell>
        <mxCell id="ToTtGPNyFrBChNgWNfNL-156" value="" style="edgeStyle=none;rounded=0;orthogonalLoop=1;jettySize=auto;html=1;" edge="1" parent="1" source="ToTtGPNyFrBChNgWNfNL-114" target="ToTtGPNyFrBChNgWNfNL-113">
          <mxGeometry relative="1" as="geometry" />
        </mxCell>
        <mxCell id="ToTtGPNyFrBChNgWNfNL-114" value="&lt;u&gt;Misch_ID&lt;/u&gt;" style="ellipse;whiteSpace=wrap;html=1;" vertex="1" parent="1">
          <mxGeometry x="500" y="1260" width="120" height="60" as="geometry" />
        </mxCell>
        <mxCell id="ToTtGPNyFrBChNgWNfNL-155" value="" style="edgeStyle=none;rounded=0;orthogonalLoop=1;jettySize=auto;html=1;" edge="1" parent="1" source="ToTtGPNyFrBChNgWNfNL-115" target="ToTtGPNyFrBChNgWNfNL-113">
          <mxGeometry relative="1" as="geometry" />
        </mxCell>
        <mxCell id="ToTtGPNyFrBChNgWNfNL-115" value="Bezeichnung" style="ellipse;whiteSpace=wrap;html=1;" vertex="1" parent="1">
          <mxGeometry x="500" y="1360" width="120" height="60" as="geometry" />
        </mxCell>
        <mxCell id="ToTtGPNyFrBChNgWNfNL-116" value="Gelagert in" style="rhombus;whiteSpace=wrap;html=1;rounded=0;" vertex="1" parent="1">
          <mxGeometry x="530" y="1600" width="80" height="80" as="geometry" />
        </mxCell>
        <mxCell id="ToTtGPNyFrBChNgWNfNL-117" value="Futtermittel" style="whiteSpace=wrap;html=1;rounded=0;" vertex="1" parent="1">
          <mxGeometry x="330" y="1610" width="120" height="60" as="geometry" />
        </mxCell>
        <mxCell id="ToTtGPNyFrBChNgWNfNL-118" value="enthaelt" style="rhombus;whiteSpace=wrap;html=1;rounded=0;" vertex="1" parent="1">
          <mxGeometry x="350" y="1450" width="80" height="80" as="geometry" />
        </mxCell>
        <mxCell id="ToTtGPNyFrBChNgWNfNL-119" value="Liefert" style="rhombus;whiteSpace=wrap;html=1;rounded=0;" vertex="1" parent="1">
          <mxGeometry x="170" y="1600" width="80" height="80" as="geometry" />
        </mxCell>
        <mxCell id="ToTtGPNyFrBChNgWNfNL-120" value="Lieferant" style="whiteSpace=wrap;html=1;rounded=0;" vertex="1" parent="1">
          <mxGeometry x="-40" y="1610" width="120" height="60" as="geometry" />
        </mxCell>
        <mxCell id="ToTtGPNyFrBChNgWNfNL-121" value="Lager" style="whiteSpace=wrap;html=1;rounded=0;" vertex="1" parent="1">
          <mxGeometry x="680" y="1610" width="120" height="60" as="geometry" />
        </mxCell>
        <mxCell id="ToTtGPNyFrBChNgWNfNL-134" style="edgeStyle=none;rounded=0;orthogonalLoop=1;jettySize=auto;html=1;exitX=0.5;exitY=1;exitDx=0;exitDy=0;entryX=0.5;entryY=0;entryDx=0;entryDy=0;" edge="1" parent="1" source="ToTtGPNyFrBChNgWNfNL-122" target="ToTtGPNyFrBChNgWNfNL-120">
          <mxGeometry relative="1" as="geometry" />
        </mxCell>
        <mxCell id="ToTtGPNyFrBChNgWNfNL-122" value="&lt;u&gt;LF_ID&lt;/u&gt;" style="ellipse;whiteSpace=wrap;html=1;" vertex="1" parent="1">
          <mxGeometry x="-40" y="1500" width="120" height="60" as="geometry" />
        </mxCell>
        <mxCell id="ToTtGPNyFrBChNgWNfNL-135" style="edgeStyle=none;rounded=0;orthogonalLoop=1;jettySize=auto;html=1;exitX=0.5;exitY=0;exitDx=0;exitDy=0;entryX=0.25;entryY=1;entryDx=0;entryDy=0;" edge="1" parent="1" source="ToTtGPNyFrBChNgWNfNL-123" target="ToTtGPNyFrBChNgWNfNL-120">
          <mxGeometry relative="1" as="geometry">
            <mxPoint x="-60" y="1700" as="sourcePoint" />
          </mxGeometry>
        </mxCell>
        <mxCell id="ToTtGPNyFrBChNgWNfNL-123" value="Name" style="ellipse;whiteSpace=wrap;html=1;" vertex="1" parent="1">
          <mxGeometry x="-100" y="1700" width="120" height="60" as="geometry" />
        </mxCell>
        <mxCell id="ToTtGPNyFrBChNgWNfNL-136" value="" style="edgeStyle=none;rounded=0;orthogonalLoop=1;jettySize=auto;html=1;" edge="1" parent="1" source="ToTtGPNyFrBChNgWNfNL-124" target="ToTtGPNyFrBChNgWNfNL-120">
          <mxGeometry relative="1" as="geometry" />
        </mxCell>
        <mxCell id="ToTtGPNyFrBChNgWNfNL-124" value="adresse" style="ellipse;whiteSpace=wrap;html=1;" vertex="1" parent="1">
          <mxGeometry x="40" y="1700" width="120" height="60" as="geometry" />
        </mxCell>
        <mxCell id="ToTtGPNyFrBChNgWNfNL-137" style="edgeStyle=none;rounded=0;orthogonalLoop=1;jettySize=auto;html=1;exitX=0.5;exitY=0;exitDx=0;exitDy=0;entryX=0.25;entryY=1;entryDx=0;entryDy=0;" edge="1" parent="1" source="ToTtGPNyFrBChNgWNfNL-125" target="ToTtGPNyFrBChNgWNfNL-117">
          <mxGeometry relative="1" as="geometry" />
        </mxCell>
        <mxCell id="ToTtGPNyFrBChNgWNfNL-125" value="&lt;u&gt;FM_ID&lt;/u&gt;" style="ellipse;whiteSpace=wrap;html=1;" vertex="1" parent="1">
          <mxGeometry x="260" y="1700" width="120" height="60" as="geometry" />
        </mxCell>
        <mxCell id="ToTtGPNyFrBChNgWNfNL-138" style="edgeStyle=none;rounded=0;orthogonalLoop=1;jettySize=auto;html=1;exitX=0.5;exitY=0;exitDx=0;exitDy=0;entryX=0.75;entryY=1;entryDx=0;entryDy=0;" edge="1" parent="1" source="ToTtGPNyFrBChNgWNfNL-126" target="ToTtGPNyFrBChNgWNfNL-117">
          <mxGeometry relative="1" as="geometry" />
        </mxCell>
        <mxCell id="ToTtGPNyFrBChNgWNfNL-126" value="Name" style="ellipse;whiteSpace=wrap;html=1;" vertex="1" parent="1">
          <mxGeometry x="400" y="1700" width="120" height="60" as="geometry" />
        </mxCell>
        <mxCell id="ToTtGPNyFrBChNgWNfNL-142" style="edgeStyle=none;rounded=0;orthogonalLoop=1;jettySize=auto;html=1;exitX=0.5;exitY=1;exitDx=0;exitDy=0;entryX=0.5;entryY=0;entryDx=0;entryDy=0;" edge="1" parent="1" source="ToTtGPNyFrBChNgWNfNL-127" target="ToTtGPNyFrBChNgWNfNL-121">
          <mxGeometry relative="1" as="geometry" />
        </mxCell>
        <mxCell id="ToTtGPNyFrBChNgWNfNL-127" value="&lt;u&gt;Lager_ID&lt;/u&gt;" style="ellipse;whiteSpace=wrap;html=1;" vertex="1" parent="1">
          <mxGeometry x="680" y="1510" width="120" height="60" as="geometry" />
        </mxCell>
        <mxCell id="ToTtGPNyFrBChNgWNfNL-141" style="edgeStyle=none;rounded=0;orthogonalLoop=1;jettySize=auto;html=1;exitX=0.5;exitY=0;exitDx=0;exitDy=0;entryX=0.5;entryY=1;entryDx=0;entryDy=0;" edge="1" parent="1" source="ToTtGPNyFrBChNgWNfNL-128" target="ToTtGPNyFrBChNgWNfNL-121">
          <mxGeometry relative="1" as="geometry" />
        </mxCell>
        <mxCell id="ToTtGPNyFrBChNgWNfNL-128" value="kap" style="ellipse;whiteSpace=wrap;html=1;" vertex="1" parent="1">
          <mxGeometry x="680" y="1710" width="120" height="60" as="geometry" />
        </mxCell>
        <mxCell id="ToTtGPNyFrBChNgWNfNL-129" value="" style="endArrow=none;html=1;rounded=0;entryX=0;entryY=0.5;entryDx=0;entryDy=0;exitX=1;exitY=0.5;exitDx=0;exitDy=0;" edge="1" parent="1" source="ToTtGPNyFrBChNgWNfNL-116" target="ToTtGPNyFrBChNgWNfNL-121">
          <mxGeometry width="50" height="50" relative="1" as="geometry">
            <mxPoint x="630" y="1620" as="sourcePoint" />
            <mxPoint x="580" y="1590" as="targetPoint" />
          </mxGeometry>
        </mxCell>
        <mxCell id="ToTtGPNyFrBChNgWNfNL-130" value="" style="endArrow=none;html=1;rounded=0;entryX=0;entryY=0.5;entryDx=0;entryDy=0;exitX=1;exitY=0.5;exitDx=0;exitDy=0;" edge="1" parent="1" source="ToTtGPNyFrBChNgWNfNL-117" target="ToTtGPNyFrBChNgWNfNL-116">
          <mxGeometry width="50" height="50" relative="1" as="geometry">
            <mxPoint x="540" y="1650" as="sourcePoint" />
            <mxPoint x="570" y="1610" as="targetPoint" />
          </mxGeometry>
        </mxCell>
        <mxCell id="ToTtGPNyFrBChNgWNfNL-131" value="" style="endArrow=none;html=1;rounded=0;entryX=0;entryY=0.5;entryDx=0;entryDy=0;exitX=1;exitY=0.5;exitDx=0;exitDy=0;" edge="1" parent="1" source="ToTtGPNyFrBChNgWNfNL-119" target="ToTtGPNyFrBChNgWNfNL-117">
          <mxGeometry width="50" height="50" relative="1" as="geometry">
            <mxPoint x="270" y="1630" as="sourcePoint" />
            <mxPoint x="320" y="1630" as="targetPoint" />
          </mxGeometry>
        </mxCell>
        <mxCell id="ToTtGPNyFrBChNgWNfNL-132" value="" style="endArrow=none;html=1;rounded=0;entryX=0;entryY=0.5;entryDx=0;entryDy=0;exitX=1;exitY=0.5;exitDx=0;exitDy=0;" edge="1" parent="1" source="ToTtGPNyFrBChNgWNfNL-120" target="ToTtGPNyFrBChNgWNfNL-119">
          <mxGeometry width="50" height="50" relative="1" as="geometry">
            <mxPoint x="110" y="1620" as="sourcePoint" />
            <mxPoint x="160" y="1639.5" as="targetPoint" />
          </mxGeometry>
        </mxCell>
        <mxCell id="ToTtGPNyFrBChNgWNfNL-139" value="" style="endArrow=none;html=1;rounded=0;entryX=0.5;entryY=1;entryDx=0;entryDy=0;exitX=0.5;exitY=0;exitDx=0;exitDy=0;" edge="1" parent="1" source="ToTtGPNyFrBChNgWNfNL-117" target="ToTtGPNyFrBChNgWNfNL-118">
          <mxGeometry width="50" height="50" relative="1" as="geometry">
            <mxPoint x="280" y="1580" as="sourcePoint" />
            <mxPoint x="360" y="1580" as="targetPoint" />
          </mxGeometry>
        </mxCell>
        <mxCell id="ToTtGPNyFrBChNgWNfNL-140" value="" style="endArrow=none;html=1;rounded=0;entryX=0.5;entryY=1;entryDx=0;entryDy=0;exitX=0.5;exitY=0;exitDx=0;exitDy=0;" edge="1" parent="1" source="ToTtGPNyFrBChNgWNfNL-118" target="ToTtGPNyFrBChNgWNfNL-113">
          <mxGeometry width="50" height="50" relative="1" as="geometry">
            <mxPoint x="439" y="1460" as="sourcePoint" />
            <mxPoint x="439" y="1380" as="targetPoint" />
          </mxGeometry>
        </mxCell>
        <mxCell id="ToTtGPNyFrBChNgWNfNL-146" value="" style="endArrow=none;html=1;rounded=0;entryX=0.5;entryY=1;entryDx=0;entryDy=0;exitX=0.5;exitY=0;exitDx=0;exitDy=0;" edge="1" parent="1" source="ToTtGPNyFrBChNgWNfNL-113" target="ToTtGPNyFrBChNgWNfNL-112">
          <mxGeometry width="50" height="50" relative="1" as="geometry">
            <mxPoint x="400" y="1460" as="sourcePoint" />
            <mxPoint x="400" y="1380" as="targetPoint" />
          </mxGeometry>
        </mxCell>
        <mxCell id="ToTtGPNyFrBChNgWNfNL-148" value="" style="endArrow=none;html=1;rounded=0;entryX=0.5;entryY=1;entryDx=0;entryDy=0;exitX=0.5;exitY=0;exitDx=0;exitDy=0;" edge="1" parent="1" source="ToTtGPNyFrBChNgWNfNL-112" target="ToTtGPNyFrBChNgWNfNL-108">
          <mxGeometry width="50" height="50" relative="1" as="geometry">
            <mxPoint x="460" y="1130" as="sourcePoint" />
            <mxPoint x="410" y="1240" as="targetPoint" />
          </mxGeometry>
        </mxCell>
        <mxCell id="ToTtGPNyFrBChNgWNfNL-149" value="" style="endArrow=none;html=1;rounded=0;entryX=0.5;entryY=1;entryDx=0;entryDy=0;exitX=0.5;exitY=0;exitDx=0;exitDy=0;" edge="1" parent="1" source="ToTtGPNyFrBChNgWNfNL-108" target="ToTtGPNyFrBChNgWNfNL-105">
          <mxGeometry width="50" height="50" relative="1" as="geometry">
            <mxPoint x="400" y="1170" as="sourcePoint" />
            <mxPoint x="390" y="960" as="targetPoint" />
          </mxGeometry>
        </mxCell>
        <mxCell id="ToTtGPNyFrBChNgWNfNL-157" value="N" style="text;html=1;strokeColor=none;fillColor=none;align=center;verticalAlign=middle;whiteSpace=wrap;rounded=0;" vertex="1" parent="1">
          <mxGeometry x="390" y="470" width="40" height="30" as="geometry" />
        </mxCell>
        <mxCell id="ToTtGPNyFrBChNgWNfNL-158" value="N" style="text;html=1;strokeColor=none;fillColor=none;align=center;verticalAlign=middle;whiteSpace=wrap;rounded=0;" vertex="1" parent="1">
          <mxGeometry x="80" y="760" width="40" height="30" as="geometry" />
        </mxCell>
        <mxCell id="ToTtGPNyFrBChNgWNfNL-159" value="N" style="text;html=1;strokeColor=none;fillColor=none;align=center;verticalAlign=middle;whiteSpace=wrap;rounded=0;" vertex="1" parent="1">
          <mxGeometry x="390" y="980" width="40" height="30" as="geometry" />
        </mxCell>
        <mxCell id="ToTtGPNyFrBChNgWNfNL-160" value="N" style="text;html=1;strokeColor=none;fillColor=none;align=center;verticalAlign=middle;whiteSpace=wrap;rounded=0;" vertex="1" parent="1">
          <mxGeometry x="390" y="1070" width="40" height="30" as="geometry" />
        </mxCell>
        <mxCell id="ToTtGPNyFrBChNgWNfNL-161" value="N" style="text;html=1;strokeColor=none;fillColor=none;align=center;verticalAlign=middle;whiteSpace=wrap;rounded=0;" vertex="1" parent="1">
          <mxGeometry x="390" y="1370" width="40" height="30" as="geometry" />
        </mxCell>
        <mxCell id="ToTtGPNyFrBChNgWNfNL-162" value="N" style="text;html=1;strokeColor=none;fillColor=none;align=center;verticalAlign=middle;whiteSpace=wrap;rounded=0;" vertex="1" parent="1">
          <mxGeometry x="450" y="1610" width="40" height="30" as="geometry" />
        </mxCell>
        <mxCell id="ToTtGPNyFrBChNgWNfNL-163" value="N" style="text;html=1;strokeColor=none;fillColor=none;align=center;verticalAlign=middle;whiteSpace=wrap;rounded=0;" vertex="1" parent="1">
          <mxGeometry x="290" y="1610" width="40" height="30" as="geometry" />
        </mxCell>
        <mxCell id="ToTtGPNyFrBChNgWNfNL-164" value="M" style="text;html=1;strokeColor=none;fillColor=none;align=center;verticalAlign=middle;whiteSpace=wrap;rounded=0;" vertex="1" parent="1">
          <mxGeometry x="390" y="1580" width="40" height="30" as="geometry" />
        </mxCell>
        <mxCell id="ToTtGPNyFrBChNgWNfNL-165" value="M" style="text;html=1;strokeColor=none;fillColor=none;align=center;verticalAlign=middle;whiteSpace=wrap;rounded=0;" vertex="1" parent="1">
          <mxGeometry x="390" y="700" width="40" height="30" as="geometry" />
        </mxCell>
        <mxCell id="ToTtGPNyFrBChNgWNfNL-166" value="1" style="text;html=1;strokeColor=none;fillColor=none;align=center;verticalAlign=middle;whiteSpace=wrap;rounded=0;" vertex="1" parent="1">
          <mxGeometry x="290" y="760" width="40" height="30" as="geometry" />
        </mxCell>
        <mxCell id="ToTtGPNyFrBChNgWNfNL-167" value="1" style="text;html=1;strokeColor=none;fillColor=none;align=center;verticalAlign=middle;whiteSpace=wrap;rounded=0;" vertex="1" parent="1">
          <mxGeometry x="650" y="760" width="40" height="30" as="geometry" />
        </mxCell>
        <mxCell id="ToTtGPNyFrBChNgWNfNL-168" value="1" style="text;html=1;strokeColor=none;fillColor=none;align=center;verticalAlign=middle;whiteSpace=wrap;rounded=0;" vertex="1" parent="1">
          <mxGeometry x="450" y="760" width="40" height="30" as="geometry" />
        </mxCell>
        <mxCell id="ToTtGPNyFrBChNgWNfNL-169" value="1" style="text;html=1;strokeColor=none;fillColor=none;align=center;verticalAlign=middle;whiteSpace=wrap;rounded=0;" vertex="1" parent="1">
          <mxGeometry x="390" y="790" width="40" height="30" as="geometry" />
        </mxCell>
        <mxCell id="ToTtGPNyFrBChNgWNfNL-170" value="1" style="text;html=1;strokeColor=none;fillColor=none;align=center;verticalAlign=middle;whiteSpace=wrap;rounded=0;" vertex="1" parent="1">
          <mxGeometry x="390" y="1280" width="40" height="30" as="geometry" />
        </mxCell>
        <mxCell id="ToTtGPNyFrBChNgWNfNL-171" value="1" style="text;html=1;strokeColor=none;fillColor=none;align=center;verticalAlign=middle;whiteSpace=wrap;rounded=0;" vertex="1" parent="1">
          <mxGeometry x="640" y="1610" width="40" height="30" as="geometry" />
        </mxCell>
        <mxCell id="ToTtGPNyFrBChNgWNfNL-172" value="1" style="text;html=1;strokeColor=none;fillColor=none;align=center;verticalAlign=middle;whiteSpace=wrap;rounded=0;" vertex="1" parent="1">
          <mxGeometry x="80" y="1610" width="40" height="30" as="geometry" />
        </mxCell>
      </root>
    </mxGraphModel>
  </diagram>
</mxfile>
